# xmcd
# 
# Track frame offsets:
#     150
#     12057
#     27270
#     40365
#     60140
#     77915
#     97570
#     114385
#     136500
#     165195
#     194125
#     214962
#     232732
#     256207
#     273652
#     300997
# 
# Disc length: 4315
# 
# Revision: 0
# Processed by: cddbd v1.5.2PL0 Copyright (c) Steve Scherf et al.
# Submitted via: fre:ac v1.0.31
# 
DISCID=bb10d910
DTITLE=Jimmie Vaughan - The Essential Jimmie Vaughan
DYEAR=2003
DGENRE=Blues
TTITLE0=Extra Jimmies (The Fabulous Thunderbirds)
TTITLE1=Tuff Enuff (The Fabulous Thunderbirds)
TTITLE2=DFW (The Vaughan Brothers)
TTITLE3=Good Texan (The Vaughan Brothers)
TTITLE4=Boom Bapa Boom
TTITLE5=Don't Cha Know
TTITLE6=Hey Yeah
TTITLE7=Tilt A Whirl
TTITLE8=Six Strings Down
TTITLE9=Dengue Woman Blues
TTITLE10=Cool Lookin' Woman
TTITLE11=Like A King
TTITLE12=The Ironic Twist
TTITLE13=Out There
TTITLE14=I Like It Like That (Live)
TTITLE15=Dirty Girl
EXTD=
EXTT0=
EXTT1=
EXTT2=
EXTT3=
EXTT4=
EXTT5=
EXTT6=
EXTT7=
EXTT8=
EXTT9=
EXTT10=
EXTT11=
EXTT12=
EXTT13=
EXTT14=
EXTT15=
PLAYORDER=
